<?xml version="1.0" standalone="no"?>
<!DOCTYPE svg PUBLIC "-//W3C//DTD SVG 20010904//EN"
 "http://www.w3.org/TR/2001/REC-SVG-20010904/DTD/svg10.dtd">
<svg version="1.0" xmlns="http://www.w3.org/2000/svg"
 width="16.000000pt" height="16.000000pt" viewBox="0 0 16.000000 16.000000"
 preserveAspectRatio="xMidYMid meet">
<metadata>
Created by potrace 1.11, written by Peter Selinger 2001-2013
</metadata>
<g transform="translate(0.000000,16.000000) scale(0.000832,-0.000832)"
fill="#000000" stroke="none">
<path d="M9523 17120 c-12 -11 -24 -20 -27 -20 -9 0 -191 -121 -197 -132 -3
-5 -10 -10 -15 -10 -13 -1 -153 -89 -176 -110 -10 -10 -18 -16 -18 -14 0 6
-99 -58 -122 -79 -10 -8 -20 -14 -23 -12 -2 1 -15 -7 -27 -18 -13 -11 -26 -19
-30 -17 -5 1 -8 -2 -8 -8 0 -5 -7 -10 -15 -10 -9 0 -18 -7 -21 -15 -4 -8 -9
-13 -14 -10 -4 2 -16 -3 -26 -13 -10 -9 -31 -23 -46 -29 -16 -7 -28 -17 -28
-23 0 -6 -4 -9 -9 -5 -6 3 -14 -3 -20 -12 -6 -10 -11 -15 -11 -11 0 9 -153
-92 -158 -104 -2 -4 -8 -6 -13 -2 -5 3 -9 1 -9 -3 0 -5 -16 -17 -35 -27 -19
-11 -35 -24 -35 -29 0 -6 -3 -7 -6 -4 -6 5 -58 -25 -74 -43 -3 -3 -22 -14 -42
-25 -21 -11 -38 -23 -38 -27 0 -5 -7 -8 -15 -8 -9 0 -18 -7 -21 -15 -4 -8 -10
-12 -15 -9 -5 3 -12 -2 -15 -10 -3 -9 -12 -16 -18 -16 -7 0 -37 -17 -67 -38
-30 -21 -62 -41 -72 -45 -9 -3 -17 -11 -17 -17 0 -6 -4 -9 -8 -6 -5 3 -24 -7
-43 -22 -19 -15 -46 -34 -61 -41 -16 -8 -28 -18 -28 -23 0 -4 -6 -8 -13 -8 -7
0 -23 -9 -35 -20 -12 -11 -24 -19 -26 -18 -2 2 -16 -7 -30 -19 -14 -13 -26
-21 -26 -18 0 5 -159 -98 -182 -119 -10 -9 -20 -15 -22 -13 -3 1 -16 -8 -29
-20 -14 -12 -28 -19 -31 -16 -3 3 -8 -2 -12 -11 -3 -9 -9 -14 -14 -11 -4 2
-16 -3 -26 -13 -10 -9 -31 -23 -46 -31 -16 -8 -28 -18 -28 -23 0 -5 -5 -6 -10
-3 -6 3 -13 -1 -16 -9 -3 -9 -10 -14 -14 -11 -4 2 -19 -6 -34 -20 -14 -13 -26
-21 -26 -17 0 4 -7 -2 -15 -12 -8 -11 -15 -17 -15 -13 0 9 -183 -111 -192
-126 -4 -7 -8 -9 -8 -5 0 5 -30 -12 -66 -37 -36 -25 -69 -45 -75 -45 -5 0 -9
-4 -9 -10 0 -5 -7 -10 -15 -10 -7 0 -19 -8 -24 -17 -6 -10 -11 -15 -11 -11 0
9 -151 -90 -162 -106 -5 -7 -8 -7 -8 -1 0 6 -7 1 -16 -10 -8 -11 -17 -18 -19
-15 -2 3 -15 -5 -29 -17 -14 -13 -26 -21 -26 -18 0 7 -144 -88 -148 -97 -2 -5
-10 -8 -17 -8 -7 0 -15 -3 -17 -7 -1 -5 -46 -35 -98 -68 -52 -32 -99 -63 -105
-67 -29 -23 -179 -118 -186 -118 -5 0 -9 -4 -9 -9 0 -5 -12 -15 -27 -22 -40
-20 -177 -112 -181 -121 -2 -5 -7 -6 -12 -3 -4 2 -19 -6 -33 -19 -14 -13 -28
-21 -31 -19 -3 3 -8 -2 -12 -11 -3 -9 -9 -14 -14 -11 -4 2 -16 -4 -26 -13 -10
-10 -41 -31 -69 -47 -27 -16 -54 -33 -60 -37 -5 -5 -53 -37 -105 -70 -52 -34
-98 -65 -101 -70 -3 -6 -9 -9 -12 -9 -11 1 -67 -34 -67 -41 0 -5 -7 -8 -15 -8
-9 0 -18 -7 -21 -15 -4 -8 -10 -12 -15 -9 -5 3 -9 0 -9 -5 0 -6 -6 -11 -12
-11 -7 0 -26 -11 -42 -25 -16 -14 -35 -25 -43 -25 -7 0 -16 -7 -19 -15 -4 -8
-10 -13 -14 -10 -5 3 -12 -1 -17 -9 -4 -8 -12 -16 -18 -17 -16 -4 -149 -91
-157 -103 -5 -6 -8 -7 -8 -1 0 6 -7 1 -15 -9 -8 -11 -15 -16 -15 -12 0 4 -7 1
-15 -6 -34 -31 -45 -38 -45 -31 0 4 -7 -1 -15 -11 -8 -11 -15 -16 -15 -12 0 5
-15 -3 -33 -16 -17 -14 -51 -35 -74 -48 -24 -13 -43 -27 -43 -32 0 -4 -7 -8
-15 -8 -7 0 -19 -8 -24 -17 -6 -10 -11 -14 -11 -10 0 4 -6 3 -12 -3 -7 -6 -35
-25 -63 -42 -27 -18 -53 -37 -57 -43 -4 -5 -8 -7 -8 -3 0 4 -43 -22 -96 -58
-52 -35 -99 -64 -105 -64 -5 0 -9 -4 -9 -10 0 -5 -5 -10 -10 -10 -12 0 -73
-41 -78 -52 -2 -5 -8 -8 -13 -8 -8 0 -235 -146 -249 -160 -3 -3 -18 -13 -35
-22 l-30 -17 0 -1243 c-1 -684 -4 -1248 -8 -1254 -3 -6 -21 -15 -39 -19 -18
-4 -35 -9 -38 -10 -3 -1 -20 -6 -38 -10 -18 -4 -35 -12 -38 -16 -3 -5 -10 -7
-15 -4 -5 4 -15 3 -22 -2 -6 -4 -21 -9 -31 -10 -11 -2 -25 -8 -31 -13 -7 -5
-14 -7 -17 -5 -3 3 -18 0 -34 -6 -35 -15 -32 -14 -69 -23 -31 -8 -149 -44
-175 -54 -17 -6 -34 -11 -52 -15 -7 -1 -19 -6 -26 -10 -6 -5 -12 -6 -12 -2 0
3 -8 1 -19 -4 -10 -6 -33 -13 -51 -16 -18 -3 -41 -10 -51 -15 -10 -6 -27 -10
-38 -10 -12 0 -21 -5 -21 -11 0 -5 -4 -8 -9 -5 -4 3 -31 -3 -60 -14 -28 -10
-54 -19 -56 -19 -3 -1 -6 -1 -7 -2 -2 0 -11 -2 -20 -4 -18 -3 -84 -23 -108
-32 -8 -3 -20 -7 -27 -9 -7 -1 -45 -12 -85 -25 -40 -13 -75 -23 -78 -24 -5 0
-43 -11 -145 -43 -27 -8 -50 -13 -51 -11 0 2 -8 -2 -17 -10 -10 -7 -17 -11
-17 -8 0 4 -19 -1 -42 -9 -48 -17 -71 -24 -111 -31 -15 -3 -27 -8 -27 -12 0
-3 -10 -7 -23 -8 -12 0 -35 -7 -52 -14 -16 -7 -34 -11 -39 -10 -4 1 -14 -4
-22 -10 -8 -6 -14 -9 -14 -5 0 3 -15 0 -32 -7 -18 -8 -37 -15 -43 -16 -9 -2
-70 -18 -103 -27 -7 -2 -13 -3 -15 -3 -1 1 -20 -6 -42 -15 -22 -10 -41 -17
-42 -17 -2 1 -4 1 -5 0 -2 0 -13 -2 -24 -4 -12 -3 -34 -10 -50 -16 -16 -7 -39
-14 -51 -15 -12 -2 -31 -8 -42 -13 -11 -6 -29 -11 -40 -11 -12 0 -21 -5 -21
-11 0 -5 -4 -8 -10 -4 -5 3 -26 -1 -47 -10 -21 -9 -39 -16 -40 -16 -2 1 -5 0
-8 0 -3 -1 -9 -3 -15 -4 -5 -1 -11 -3 -12 -5 -2 -1 -16 -4 -33 -6 -16 -3 -32
-9 -33 -15 -2 -5 -7 -7 -11 -4 -5 2 -31 -4 -60 -14 -28 -11 -51 -17 -51 -14 0
3 -7 0 -15 -7 -8 -7 -15 -10 -15 -6 0 3 -15 0 -32 -7 -18 -8 -36 -15 -40 -15
-5 -1 -9 -2 -10 -3 -2 0 -14 -2 -27 -5 -14 -2 -30 -9 -36 -14 -7 -5 -15 -7
-18 -3 -4 3 -13 0 -22 -7 -8 -7 -15 -10 -15 -6 0 3 -12 1 -27 -5 -16 -6 -39
-13 -53 -16 -13 -2 -29 -8 -36 -14 -6 -5 -14 -5 -18 -1 -8 7 -3 -40 8 -83 2
-11 12 -51 20 -90 9 -38 19 -79 21 -90 3 -11 7 -30 10 -42 3 -13 8 -33 11 -45
3 -13 7 -32 8 -43 2 -11 4 -20 5 -20 1 0 4 -11 6 -25 6 -33 13 -65 15 -65 1 0
4 -11 6 -25 8 -47 11 -65 14 -65 1 0 3 -9 5 -20 8 -45 14 -73 30 -140 8 -38
18 -81 21 -95 3 -14 8 -34 11 -45 8 -25 13 -55 14 -77 0 -10 5 -20 10 -23 5
-4 7 -11 4 -16 -4 -5 -3 -14 1 -21 4 -7 9 -26 11 -43 2 -16 6 -37 10 -45 7
-18 9 -25 16 -65 3 -16 10 -52 17 -80 6 -27 14 -59 16 -70 2 -11 6 -30 9 -42
3 -13 7 -33 10 -45 2 -13 7 -35 11 -50 3 -15 6 -31 6 -35 0 -5 4 -19 9 -32 5
-13 12 -42 15 -64 2 -22 8 -45 11 -51 4 -5 8 -19 9 -31 2 -11 10 -51 19 -90 9
-38 20 -90 25 -115 5 -25 11 -52 14 -60 3 -8 8 -28 11 -45 6 -32 12 -57 15
-65 1 -3 2 -9 1 -14 -1 -4 4 -25 10 -45 7 -20 14 -45 16 -56 4 -27 11 -60 13
-60 2 0 5 -17 16 -80 3 -22 9 -47 13 -55 10 -21 5 -83 -13 -170 -3 -14 -8 -36
-11 -50 -11 -51 -16 -76 -21 -105 -6 -37 -14 -74 -19 -100 -9 -36 -17 -80 -20
-105 -2 -14 -4 -25 -5 -25 -2 0 -4 -9 -6 -20 -1 -11 -5 -31 -9 -45 -3 -14 -8
-36 -10 -50 -2 -14 -7 -36 -10 -50 -3 -14 -8 -38 -10 -55 -3 -16 -8 -37 -11
-46 -5 -18 -14 -66 -19 -109 -2 -14 -4 -25 -5 -25 -2 0 -4 -9 -6 -20 -2 -11
-6 -33 -10 -50 -3 -16 -6 -39 -7 -50 -1 -11 -5 -24 -8 -30 -4 -5 -10 -30 -13
-55 -3 -25 -9 -56 -12 -70 -3 -14 -8 -36 -10 -50 -3 -14 -7 -36 -10 -50 -3
-14 -7 -35 -9 -47 -1 -11 -6 -29 -9 -40 -5 -16 -11 -48 -23 -113 -6 -37 -11
-62 -18 -90 -3 -14 -8 -36 -10 -50 -2 -14 -7 -36 -10 -50 -3 -14 -8 -36 -10
-50 -2 -14 -7 -36 -10 -50 -13 -59 -18 -87 -21 -110 -1 -14 -3 -25 -4 -25 -1
0 -3 -7 -5 -15 -5 -24 -16 -84 -19 -100 -1 -8 -6 -28 -10 -45 -3 -16 -9 -46
-12 -65 -3 -19 -7 -44 -9 -55 -3 -11 -12 -54 -20 -95 -9 -41 -18 -86 -20 -100
-2 -14 -7 -36 -10 -50 -3 -14 -8 -38 -11 -55 -8 -45 -12 -67 -19 -95 -3 -14
-8 -36 -10 -50 -3 -14 -9 -47 -15 -75 -6 -27 -12 -61 -15 -75 -2 -14 -7 -38
-11 -55 -6 -25 -4 -28 8 -17 8 6 18 9 21 5 4 -3 13 0 22 7 8 7 15 9 15 6 0 -4
8 -2 19 3 10 6 32 13 49 16 17 3 44 10 59 17 15 6 37 13 47 15 11 2 40 11 65
19 25 9 51 17 56 18 6 2 28 8 50 14 22 6 42 11 45 11 3 -1 22 6 44 15 21 9 47
16 57 16 11 0 19 5 19 11 0 5 4 8 9 5 5 -4 22 -1 38 6 15 6 34 10 40 9 7 -1
13 3 13 9 0 6 4 9 9 5 6 -3 34 4 63 15 29 11 58 20 65 20 6 0 24 5 40 12 15 6
33 12 38 13 6 1 12 3 15 4 3 2 12 4 20 6 8 1 53 15 100 30 47 15 92 28 100 30
8 2 16 4 18 5 1 2 7 4 12 5 6 1 11 3 13 5 1 1 11 4 22 6 34 8 50 12 50 14 0 1
11 3 24 6 14 2 30 9 38 15 7 6 13 8 13 4 0 -4 6 -2 13 4 8 6 17 8 20 5 3 -3
12 -2 19 2 7 5 22 10 32 11 11 2 25 8 31 13 7 5 15 7 18 3 4 -3 13 0 22 7 8 7
15 10 15 6 0 -3 17 1 38 9 20 9 38 16 40 16 1 -1 4 0 7 0 3 1 8 2 13 3 60 14
112 32 112 38 0 5 4 7 9 4 5 -3 25 1 45 9 20 8 36 13 36 10 0 -3 9 -1 21 5 11
7 33 14 47 16 15 3 31 9 38 15 6 5 13 6 16 4 3 -3 18 0 34 6 16 7 36 13 44 15
8 2 40 11 70 21 30 9 58 16 63 15 4 -1 7 3 7 9 0 5 4 8 10 4 5 -3 26 1 46 10
20 8 51 18 67 21 17 2 35 8 41 12 6 3 17 8 24 9 29 7 47 12 50 13 1 2 7 4 12
5 6 1 12 4 15 5 6 3 6 3 55 14 19 5 41 13 48 18 6 6 12 8 12 5 0 -4 19 1 43 9
23 9 47 17 52 18 6 2 24 6 40 10 17 4 37 10 45 13 18 7 13 6 70 22 25 7 65 20
90 29 25 9 51 15 58 14 6 -2 12 2 12 8 0 6 5 8 10 5 6 -3 16 -3 23 2 6 4 21 9
31 10 11 2 25 8 31 13 7 5 14 7 17 4 3 -3 23 2 44 11 22 10 46 18 54 20 42 6
81 19 86 26 3 5 10 7 15 4 5 -4 15 -3 22 2 6 4 17 8 22 9 6 1 15 3 20 5 17 5
57 -12 106 -47 26 -18 50 -30 53 -27 3 4 6 1 6 -5 0 -7 6 -12 14 -12 8 0 16
-7 20 -15 3 -8 12 -15 21 -15 8 0 15 -3 15 -8 0 -4 17 -16 37 -27 21 -11 47
-28 57 -37 11 -10 26 -18 33 -18 7 0 13 -3 13 -7 0 -8 58 -44 63 -40 1 1 14
-9 27 -21 14 -13 38 -31 54 -39 16 -8 51 -31 78 -49 26 -19 48 -31 48 -27 0 5
5 1 10 -7 5 -8 14 -15 20 -15 6 0 14 -5 18 -11 4 -6 23 -19 42 -30 19 -10 37
-21 40 -24 15 -17 70 -50 70 -43 0 4 5 0 11 -9 5 -10 17 -18 24 -18 8 0 15 -4
15 -9 0 -5 13 -14 30 -21 16 -7 30 -15 30 -19 0 -4 17 -15 37 -26 21 -11 45
-26 53 -33 8 -7 17 -11 20 -10 3 1 18 -9 33 -22 16 -14 32 -25 35 -24 4 1 12
-6 19 -15 7 -9 13 -11 13 -6 0 6 3 6 8 -1 11 -16 132 -96 132 -87 0 4 5 0 11
-10 6 -9 14 -15 19 -12 4 3 11 -2 14 -11 3 -8 10 -13 15 -10 5 3 11 -1 15 -9
3 -8 12 -15 21 -15 8 0 15 -5 15 -11 0 -5 4 -8 9 -5 5 4 11 2 13 -3 4 -10 169
-118 182 -119 5 0 13 -7 18 -16 5 -9 13 -14 19 -11 5 4 9 1 9 -4 0 -6 7 -11
15 -11 8 0 15 -4 15 -8 0 -9 50 -40 64 -40 5 0 13 -7 18 -16 5 -9 13 -14 19
-11 5 4 9 2 9 -4 0 -6 15 -18 33 -27 17 -9 34 -20 37 -23 9 -11 150 -101 150
-96 0 3 6 1 12 -5 56 -46 75 -60 86 -60 6 0 12 -5 12 -11 0 -5 4 -8 9 -5 5 4
11 2 13 -2 5 -13 128 -94 128 -85 0 4 5 0 11 -10 5 -9 17 -17 24 -17 8 0 15
-4 15 -10 0 -5 6 -10 14 -10 8 0 16 -3 18 -7 5 -12 118 -84 118 -76 0 5 5 1
10 -7 5 -8 14 -15 20 -15 6 0 14 -5 18 -10 9 -13 66 -50 71 -46 2 1 7 -1 10
-6 10 -16 101 -74 101 -66 0 4 5 0 11 -9 5 -10 17 -18 24 -18 8 0 15 -5 15
-11 0 -5 4 -8 9 -5 5 3 12 -1 15 -10 3 -8 10 -12 16 -9 5 3 10 1 10 -5 0 -6 8
-14 18 -17 9 -4 36 -20 58 -35 23 -15 44 -28 47 -28 3 0 18 -11 33 -25 14 -13
30 -22 34 -20 4 3 11 -2 14 -11 3 -8 10 -13 15 -10 5 4 11 2 13 -2 4 -12 95
-72 107 -72 6 0 11 -4 11 -10 0 -5 7 -10 15 -10 8 0 15 -4 15 -10 0 -5 7 -10
15 -10 8 0 15 -5 15 -11 0 -5 4 -8 9 -5 5 3 11 -1 15 -9 3 -8 12 -15 21 -15 8
0 15 -4 15 -10 0 -5 6 -10 13 -10 8 0 27 -11 43 -25 16 -14 33 -25 37 -25 4 0
17 -9 29 -20 12 -10 25 -17 30 -14 4 3 8 1 8 -4 0 -10 57 -47 74 -49 5 -1 12
-5 15 -10 9 -13 130 -93 142 -93 5 0 9 -4 9 -10 0 -5 6 -10 14 -10 8 0 16 -3
18 -7 5 -12 148 -104 148 -96 0 5 4 3 8 -3 9 -14 94 -71 106 -72 5 0 12 -4 15
-9 10 -16 131 -94 131 -86 0 4 5 1 10 -7 5 -8 14 -15 20 -15 6 0 14 -5 18 -11
4 -6 18 -17 31 -24 14 -7 30 -17 35 -21 28 -22 206 -137 206 -133 0 3 10 -4
22 -16 12 -11 26 -20 30 -20 5 0 18 -9 30 -20 12 -11 34 -26 50 -32 15 -7 28
-17 28 -21 0 -5 4 -6 9 -3 5 3 12 -1 15 -10 3 -8 10 -13 15 -10 5 3 11 -1 15
-9 3 -8 12 -15 21 -15 8 0 15 -4 15 -9 0 -5 8 -11 18 -15 17 -6 53 -27 62 -36
15 -16 70 -50 70 -43 0 4 4 3 8 -3 10 -14 221 -154 233 -154 5 0 9 -4 9 -8 0
-5 12 -15 27 -23 16 -8 33 -17 38 -22 40 -30 145 -95 145 -89 0 4 5 -1 11 -10
5 -10 17 -18 24 -18 8 0 15 -5 15 -11 0 -5 4 -8 9 -5 5 3 12 -1 15 -10 3 -8
10 -12 16 -9 5 3 10 2 10 -3 0 -5 12 -15 28 -23 15 -8 36 -22 46 -31 10 -10
22 -15 26 -13 5 3 11 -2 14 -11 5 -14 11 -13 40 10 19 14 39 26 45 26 6 0 11
5 11 10 0 6 7 10 15 10 8 0 15 5 15 10 0 6 7 10 15 10 7 0 18 8 24 17 5 10 11
16 13 14 3 -4 56 26 68 39 3 3 22 14 44 25 21 11 40 26 43 32 3 7 9 11 13 8 5
-3 13 3 19 12 6 10 11 15 11 12 0 -7 213 129 240 153 8 7 18 12 23 10 4 -1 10
5 13 13 3 8 9 13 14 10 4 -2 16 3 26 13 10 9 31 23 47 31 15 8 27 18 27 23 0
5 4 7 9 3 6 -3 14 2 19 11 5 9 12 15 16 15 6 -1 56 28 66 39 3 3 17 11 33 19
15 8 27 18 27 23 0 4 5 8 11 8 12 0 101 59 110 73 3 5 9 7 12 5 4 -1 14 4 24
12 10 8 31 21 46 29 15 8 27 18 27 23 0 4 7 8 15 8 8 0 15 5 15 11 0 5 5 7 10
4 6 -3 13 1 16 9 3 9 10 14 14 11 4 -2 19 6 34 20 14 13 26 22 26 21 0 -5 221
139 240 156 8 7 18 13 22 13 4 0 15 7 25 15 10 8 35 24 57 35 21 11 40 26 43
32 3 7 9 11 13 8 4 -2 19 6 34 20 14 13 26 22 26 19 0 -7 123 77 132 90 5 7 8
7 8 1 0 -5 7 -1 15 9 8 11 15 16 15 10 0 -5 7 0 15 10 8 11 15 17 15 14 0 -5
181 109 206 131 6 5 25 16 42 25 18 9 32 22 32 28 0 6 3 9 6 5 6 -6 155 88
165 105 3 5 8 9 10 7 2 -1 38 19 79 45 120 76 140 91 140 99 0 5 4 6 8 3 5 -3
18 2 28 12 10 9 31 23 46 31 15 8 37 22 47 33 11 10 25 18 31 18 5 0 10 5 10
11 0 5 4 8 8 5 5 -3 21 7 37 22 16 15 32 26 35 25 7 -2 144 89 148 99 2 5 8 6
13 2 5 -3 12 2 15 10 3 9 10 14 14 11 4 -2 19 6 34 20 15 13 30 25 34 25 4 0
15 7 25 15 9 8 20 15 22 15 9 0 90 54 93 63 2 4 10 7 17 7 7 0 16 7 19 16 3 8
10 13 15 10 5 -3 20 5 35 19 14 13 26 22 26 19 0 -3 23 10 50 30 28 20 55 36
60 36 6 0 10 5 10 10 0 6 7 10 15 10 8 0 15 5 15 10 0 6 4 10 9 10 7 0 132 78
156 97 6 5 27 19 48 32 21 13 45 30 54 39 9 10 17 15 17 13 1 -6 90 50 97 61
3 5 9 8 12 6 3 -1 17 7 30 19 14 12 27 19 30 17 2 -2 16 7 30 20 15 14 27 23
27 20 0 -3 21 10 48 29 26 18 55 37 65 40 9 4 17 11 17 17 0 6 4 9 9 6 5 -3
20 5 35 19 15 13 30 25 34 26 4 1 45 26 92 57 47 30 117 76 155 101 39 25 72
48 75 51 3 3 17 11 33 17 15 7 27 17 27 23 0 6 5 8 10 5 6 -3 13 1 16 9 3 9 9
14 13 11 4 -2 19 7 34 21 15 13 29 23 31 22 3 -2 13 4 23 12 10 8 31 21 46 29
15 8 27 18 27 23 0 5 5 6 10 3 6 -3 13 1 16 9 3 9 10 13 15 10 5 -3 12 2 15
10 3 9 9 14 14 11 4 -2 16 5 28 15 12 11 24 20 27 20 10 0 100 63 103 72 2 4
8 6 13 2 5 -3 12 2 15 10 3 9 9 14 14 11 4 -2 16 5 28 15 12 11 26 20 32 20 5
0 10 5 10 10 0 6 5 10 11 10 11 0 99 59 110 73 3 5 9 7 12 5 4 -1 16 5 27 14
11 10 25 18 30 18 6 0 10 5 10 10 0 6 7 10 15 10 7 0 19 8 24 18 6 9 11 13 11
9 0 -9 91 51 102 67 5 7 8 7 8 1 0 -5 7 -1 16 10 8 11 17 18 19 15 2 -3 14 4
27 15 13 11 25 21 28 21 9 1 94 57 108 71 7 7 17 13 21 13 4 0 7 564 7 1254
-1 690 1 1253 3 1251 2 -3 18 2 35 9 17 7 34 14 39 14 4 1 8 2 10 3 1 0 13 2
26 5 14 2 30 9 36 14 7 5 15 7 18 4 3 -3 12 -2 19 2 7 5 20 10 29 11 9 1 29 8
45 15 16 6 36 12 44 13 8 1 53 15 100 30 47 15 92 28 100 30 8 2 16 4 18 5 1
2 7 4 12 5 6 1 11 3 13 5 2 2 19 6 52 14 11 2 20 5 20 6 0 1 10 3 21 5 12 3
34 10 50 16 16 7 34 13 39 13 6 1 30 8 55 16 56 17 56 17 110 31 25 7 48 17
52 23 4 6 10 8 13 4 4 -3 22 0 41 8 19 8 34 12 34 10 0 -2 24 5 53 15 28 11
61 22 72 24 61 13 115 31 115 38 0 4 5 5 10 2 6 -3 16 -3 23 2 6 4 15 8 20 9
4 1 10 3 15 4 4 1 12 3 17 4 6 1 30 8 55 16 25 7 48 13 53 12 4 -1 7 3 7 9 0
5 4 8 9 4 5 -3 20 -1 33 4 42 17 63 24 83 26 11 2 34 9 50 16 17 7 35 13 40
14 6 1 13 3 18 5 4 1 12 4 17 5 6 1 11 3 13 5 1 1 11 4 22 6 11 3 25 6 30 8 6
1 30 8 55 15 25 7 52 16 60 19 8 3 22 6 31 8 9 2 29 9 45 16 16 6 36 12 44 13
19 2 91 25 105 33 5 3 16 7 25 8 8 0 56 14 105 29 50 16 96 30 103 31 8 1 21
6 30 10 9 4 26 9 37 11 11 2 27 6 35 10 8 3 24 8 34 10 11 2 25 8 31 13 7 5
15 7 18 4 3 -3 12 -2 19 2 7 5 19 9 26 10 8 2 21 6 30 10 9 4 28 9 41 11 13 2
36 10 50 17 14 7 32 11 39 9 6 -3 12 1 12 7 0 6 6 10 13 7 6 -2 30 2 52 10 22
8 51 17 64 19 13 3 31 9 40 13 9 5 21 10 26 10 6 1 27 6 47 12 34 9 37 12 28
34 -5 14 -7 25 -4 25 4 0 1 6 -5 13 -6 8 -8 17 -5 20 3 3 2 12 -2 19 -4 7 -9
19 -10 28 -5 28 -12 65 -19 90 -4 14 -7 33 -7 42 1 10 -4 20 -9 23 -5 4 -7 10
-5 14 3 4 1 25 -5 46 -6 20 -12 47 -15 59 -3 17 -10 48 -20 89 -1 4 -2 8 -4
10 -1 1 -3 11 -5 22 -3 20 -9 49 -20 95 -4 14 -8 34 -9 45 -2 11 -4 20 -6 20
-1 0 -3 9 -5 20 -2 11 -6 31 -10 45 -3 14 -8 36 -10 50 -2 14 -8 37 -14 51 -5
15 -8 29 -5 32 2 2 0 15 -5 29 -5 14 -12 40 -16 59 -3 19 -7 39 -9 44 -1 6 -7
28 -11 50 -12 55 -12 55 -15 58 -1 1 -3 11 -5 22 -11 59 -14 74 -25 120 -6 28
-13 57 -15 65 -2 8 -11 47 -20 85 -9 39 -18 79 -20 90 -2 11 -7 34 -10 50 -4
17 -8 37 -10 45 -2 8 -4 17 -6 20 -1 3 -3 10 -4 15 -4 28 -21 104 -25 108 -2
2 -4 16 -14 75 -3 18 -7 36 -10 40 -2 4 -7 27 -11 52 -4 25 -9 48 -12 53 -3 4
-7 23 -9 40 -3 18 -8 39 -11 47 -6 14 -8 24 -17 73 -3 12 -5 22 -6 22 -1 0 -3
9 -5 20 -4 32 -22 110 -25 110 -1 0 -3 9 -5 20 -1 11 -6 34 -10 50 -13 56 -10
99 20 235 9 41 18 87 20 102 2 15 6 35 9 45 3 10 7 29 10 43 2 14 7 43 12 65
4 22 9 49 10 60 1 11 3 20 4 20 2 0 4 9 6 20 1 11 5 31 9 45 7 32 16 78 20
110 2 14 4 25 5 25 2 0 10 36 14 65 2 14 6 32 9 40 4 8 9 31 11 50 2 19 7 46
11 60 3 14 8 39 10 55 2 17 4 30 5 30 2 0 5 16 14 60 3 17 9 44 12 60 9 46 15
78 18 100 2 11 6 27 10 36 4 9 6 20 5 25 -1 5 0 11 1 14 2 6 6 24 15 70 7 31
10 52 19 100 1 8 6 31 11 50 4 19 9 46 11 60 1 14 3 25 4 25 2 0 4 9 6 20 7
38 13 70 20 100 3 17 8 41 9 55 2 14 4 25 5 25 2 0 4 9 6 20 1 11 5 34 8 52 2
18 7 36 9 41 3 4 8 29 11 56 3 26 8 51 11 55 2 5 7 27 10 51 3 23 7 45 10 50
2 4 6 22 9 41 2 19 9 54 15 79 5 25 13 61 16 80 3 19 8 42 10 50 5 16 16 73
20 105 2 11 4 20 6 20 1 0 3 75 4 166 l1 167 -24 -4 c-14 -3 -40 -11 -58 -19
-19 -8 -34 -12 -34 -9 0 2 -16 -2 -35 -10 -19 -8 -35 -12 -35 -9 0 3 -7 0 -15
-7 -8 -7 -15 -9 -15 -6 0 4 -8 2 -18 -3 -11 -6 -30 -12 -43 -15 -13 -2 -67
-18 -120 -35 -53 -17 -103 -31 -113 -31 -9 0 -16 -5 -16 -11 0 -5 -4 -8 -10
-4 -5 3 -25 -1 -45 -9 -19 -8 -35 -13 -35 -10 0 3 -9 0 -21 -6 -11 -7 -33 -14
-47 -16 -15 -3 -31 -9 -38 -15 -6 -5 -14 -6 -17 -2 -4 3 -13 0 -22 -7 -8 -7
-15 -10 -15 -7 0 4 -19 -1 -42 -9 -24 -9 -54 -18 -68 -20 -14 -3 -29 -9 -34
-14 -5 -5 -15 -6 -22 -3 -8 3 -14 0 -14 -7 0 -6 -5 -8 -10 -5 -6 4 -17 1 -25
-5 -8 -7 -15 -10 -15 -6 0 3 -12 1 -27 -5 -16 -6 -39 -13 -52 -15 -14 -3 -29
-8 -35 -12 -6 -3 -17 -8 -23 -9 -31 -7 -48 -12 -48 -13 0 -1 -7 -3 -15 -5 -8
-2 -46 -13 -85 -25 -38 -12 -74 -22 -80 -23 -5 -2 -16 -6 -22 -10 -7 -5 -13
-6 -13 -3 0 3 -19 -2 -42 -10 -24 -9 -47 -17 -53 -18 -5 -1 -16 -5 -22 -9 -7
-5 -13 -6 -13 -2 0 3 -17 -2 -37 -10 -21 -9 -40 -16 -43 -16 -3 0 -23 -5 -45
-11 -22 -6 -42 -12 -45 -13 -3 0 -27 -8 -55 -17 -60 -19 -167 -52 -177 -54 -5
-1 -9 -2 -10 -4 -5 -3 -32 -10 -65 -16 -18 -4 -33 -11 -33 -16 0 -5 -4 -7 -9
-4 -5 4 -20 2 -33 -3 -12 -5 -27 -10 -33 -11 -5 -1 -26 -8 -45 -16 -19 -8 -36
-15 -38 -14 -9 3 -72 -14 -72 -19 0 -4 -6 -8 -12 -9 -12 0 -23 -3 -75 -17 -10
-2 -63 -18 -118 -36 -55 -17 -106 -31 -112 -32 -7 0 -13 -3 -13 -7 0 -3 -8 -6
-17 -7 -45 -5 -83 -16 -83 -25 0 -5 -4 -7 -9 -4 -5 3 -28 -1 -52 -10 -24 -9
-48 -17 -54 -18 -5 -1 -16 -5 -22 -9 -7 -5 -13 -6 -13 -2 0 3 -16 -1 -35 -9
-19 -8 -35 -12 -35 -9 0 3 -7 0 -15 -7 -8 -7 -15 -10 -15 -6 0 3 -16 0 -35 -8
-19 -8 -35 -12 -35 -9 0 3 -7 0 -15 -7 -8 -7 -15 -10 -15 -6 0 3 -12 1 -27 -5
-16 -6 -39 -13 -52 -15 -14 -3 -29 -8 -35 -12 -37 -23 -108 -20 -135 5 -13 12
-27 20 -31 18 -5 -3 -11 2 -14 11 -4 9 -9 14 -12 11 -3 -2 -17 6 -31 19 -14
13 -29 21 -34 18 -5 -3 -9 0 -9 6 0 6 -8 14 -17 17 -10 4 -32 17 -49 30 -17
13 -36 23 -42 23 -7 0 -12 3 -12 8 0 6 -48 37 -68 44 -7 2 -19 11 -45 34 -7 5
-28 19 -47 30 -19 10 -43 27 -54 37 -11 9 -26 17 -33 17 -7 0 -13 4 -13 8 0 5
-12 15 -27 23 -15 8 -36 21 -46 29 -10 8 -21 15 -25 15 -4 0 -22 11 -40 25
-19 14 -35 23 -37 20 -2 -3 -11 4 -19 15 -9 11 -16 17 -16 13 0 -4 -12 4 -26
17 -15 14 -30 22 -34 20 -5 -3 -10 -1 -12 3 -4 10 -188 134 -188 127 0 -3 -10
4 -22 15 -13 12 -36 29 -53 37 -16 9 -45 27 -62 41 -18 13 -33 21 -33 16 0 -4
-7 1 -15 12 -8 10 -15 15 -15 11 0 -5 -7 -1 -16 8 -17 17 -121 85 -130 85 -2
0 -14 9 -26 20 -12 10 -25 17 -30 14 -4 -3 -8 -1 -8 3 0 9 -96 74 -106 72 -4
0 -10 3 -13 8 -8 12 -185 128 -190 124 -2 -1 -7 1 -10 6 -9 14 -129 93 -140
93 -6 0 -11 5 -11 10 0 6 -7 10 -15 10 -8 0 -15 5 -15 10 0 6 -7 10 -15 10 -8
0 -15 5 -15 10 0 6 -5 10 -10 10 -6 0 -16 5 -23 10 -29 24 -117 80 -127 80 -5
0 -10 5 -10 12 0 6 -3 9 -6 5 -3 -3 -17 4 -31 16 -13 12 -27 20 -30 19 -3 -2
-9 0 -12 5 -9 14 -160 113 -171 113 -6 0 -10 4 -10 8 0 5 -12 15 -27 23 -16 8
-32 17 -38 22 -30 22 -145 95 -145 92 0 -3 -10 4 -22 15 -13 10 -27 20 -33 22
-5 1 -18 9 -28 18 -9 9 -30 23 -45 31 -14 8 -35 21 -45 29 -10 8 -19 13 -21
10 -1 -3 -10 2 -19 10 -41 37 -151 110 -166 110 -6 0 -11 4 -11 8 0 5 -12 15
-27 23 -16 8 -37 22 -47 31 -10 10 -22 15 -26 13 -5 -3 -11 2 -14 11 -4 9 -9
14 -12 11 -4 -3 -15 2 -25 12 -11 10 -32 24 -47 32 -14 8 -35 21 -45 29 -10 8
-21 15 -25 14 -4 0 -18 10 -31 23 -14 12 -38 27 -53 34 -15 6 -28 16 -28 21 0
5 -4 7 -9 4 -5 -4 -11 -2 -13 2 -4 10 -98 75 -98 68 0 -3 -12 6 -26 19 -15 14
-30 22 -34 20 -4 -3 -11 2 -14 11 -3 8 -10 13 -15 10 -5 -4 -11 -2 -13 2 -4
12 -158 114 -158 106 0 -4 -12 5 -26 20 -15 14 -33 26 -40 26 -8 0 -14 5 -14
10 0 6 -5 10 -10 10 -6 0 -33 16 -60 35 -27 19 -54 35 -60 35 -5 0 -10 5 -10
11 0 5 -4 8 -9 5 -5 -4 -11 -2 -13 2 -3 9 -123 92 -133 92 -3 0 -15 9 -27 20
-12 10 -24 17 -28 15 -5 -3 -10 2 -14 10 -3 8 -12 15 -21 15 -8 0 -15 5 -15
11 0 5 -4 7 -10 4 -5 -3 -10 -1 -10 5 0 6 -8 14 -17 17 -10 4 -39 22 -65 41
-27 19 -48 31 -48 28 0 -3 -11 4 -24 15 -13 12 -27 20 -31 19 -4 -1 -13 7 -21
17 -7 10 -14 14 -14 8 0 -6 -3 -6 -8 1 -10 15 -129 94 -141 94 -6 0 -11 4 -11
8 0 5 -11 14 -25 20 -14 7 -31 17 -38 22 -23 20 -119 80 -128 80 -5 0 -9 4 -9
8 0 5 -12 15 -27 23 -16 8 -37 22 -47 31 -10 10 -22 15 -26 13 -5 -3 -10 2
-14 10 -3 8 -10 15 -16 15 -6 0 -26 11 -44 25 -18 14 -38 25 -44 25 -7 0 -12
5 -12 10 0 6 -6 10 -14 10 -8 0 -16 3 -18 8 -1 4 -21 19 -43 33 -152 99 -181
117 -188 117 -5 1 -15 9 -23 19 -7 10 -14 14 -14 10 0 -4 -10 1 -22 13 -12 11
-34 26 -50 32 -15 7 -28 16 -28 20 0 5 -6 8 -14 8 -8 0 -16 5 -18 10 -2 6 -13
2 -25 -10z"/>
</g>
</svg>
